<svg width="78" height="58" viewBox="0 0 78 58" fill="none" xmlns="http://www.w3.org/2000/svg">
<path d="M33.1727 30.5306L28.5773 35.0868L21.242 27.8142C18.7232 25.317 18.7232 21.2538 21.242 18.7533L28.5708 11.4872L33.1662 16.0434L25.8375 23.3096L33.1727 30.5306ZM49.4227 35.0868L56.758 27.8142C59.2768 25.317 59.2768 21.2538 56.758 18.7533L49.4292 11.4872L44.8338 16.0434L52.1625 23.258L44.8273 30.5306L49.4227 35.0868ZM78 38.6667V48.3333C78 53.6629 73.6255 58 68.25 58H9.75C4.3745 58 0 53.6629 0 48.3333V38.6667H6.5V0H71.5V38.6667H78ZM13 38.6667H28.9705L32.2205 41.8889H45.7795L49.0295 38.6667H65V6.44444H13V38.6667ZM71.5 45.1111H51.7205L48.4705 48.3333H29.5295L26.2795 45.1111H6.5V48.3333C6.5 50.1088 7.95925 51.5556 9.75 51.5556H68.25C70.0407 51.5556 71.5 50.1088 71.5 48.3333V45.1111Z" fill="#76C046"/>
</svg>
